<svg xmlns="http://www.w3.org/2000/svg" xmlns:xlink="http://www.w3.org/1999/xlink" width="500" zoomAndPan="magnify" viewBox="0 0 375 374.999991" height="500" preserveAspectRatio="xMidYMid meet" version="1.0"><defs><g/></defs><g fill="#ffde59" fill-opacity="1"><g transform="translate(40.017459, 266.655342)"><g><path d="M 92.15625 3.234375 C 130.316406 3.234375 167.824219 -21.34375 167.824219 -61.761719 C 167.824219 -98.300781 134.195312 -112.53125 98.300781 -126.757812 C 70.816406 -138.074219 37.511719 -150.363281 37.511719 -180.757812 C 37.511719 -208.246094 59.820312 -223.441406 86.015625 -223.441406 C 122.878906 -223.441406 145.511719 -203.394531 157.476562 -175.261719 L 160.710938 -176.230469 L 159.417969 -213.742188 C 146.804688 -220.53125 125.789062 -228.617188 96.363281 -228.617188 C 48.828125 -228.617188 17.460938 -204.6875 17.460938 -166.855469 C 17.460938 -132.578125 41.714844 -118.996094 79.871094 -103.800781 C 107.03125 -92.804688 146.804688 -77.929688 146.804688 -45.59375 C 146.804688 -19.402344 124.492188 -2.585938 98.625 -2.585938 C 53.679688 -2.585938 29.101562 -31.367188 16.492188 -65.320312 L 12.933594 -64.671875 L 14.550781 -19.726562 C 29.75 -8.730469 58.203125 3.234375 92.15625 3.234375 Z M 92.15625 3.234375 "/></g></g></g><g fill="#ffde59" fill-opacity="1"><g transform="translate(156.787377, 334.08237)"><g><path d="M 16.492188 0 L 175.910156 0 L 178.496094 -43.007812 L 174.9375 -43.652344 C 163.296875 -13.582031 143.574219 -4.851562 112.53125 -4.851562 L 70.492188 -4.851562 C 61.113281 -4.851562 55.941406 -10.023438 55.941406 -19.402344 L 55.941406 -118.671875 L 97.332031 -118.671875 C 134.195312 -118.671875 143.574219 -111.234375 147.453125 -96.683594 L 151.332031 -96.683594 L 151.332031 -145.511719 L 147.453125 -145.511719 C 143.574219 -130.960938 134.195312 -123.523438 97.332031 -123.523438 L 55.941406 -123.523438 L 55.941406 -221.503906 L 103.476562 -221.503906 C 136.457031 -221.503906 155.535156 -211.800781 166.855469 -183.34375 L 170.410156 -184.316406 L 166.855469 -226.351562 L 16.492188 -226.351562 L 16.492188 -222.148438 C 26.191406 -219.238281 29.425781 -211.800781 29.425781 -185.285156 L 29.425781 -41.066406 C 29.425781 -14.550781 26.191406 -7.113281 16.492188 -4.203125 Z M 16.492188 0 "/></g></g></g></svg>